<?xml version="1.0" encoding="UTF-8"?>
<svg version="1.1" xmlns="http://www.w3.org/2000/svg" width="16" height="16">
<path d="M0 0 C1.10844919 3.32534757 0.84454356 5.62182575 0 9 C1.32 6.03 2.64 3.06 4 0 C4.66666667 2 5.33333333 4 6 6 C6 4.35 6 2.7 6 1 C6.99 1.66 7.98 2.32 9 3 C9.30537066 6.78659614 9.31331392 9.7780757 8.375 13.4375 C7 15 7 15 4.0625 15.875 C1 16 1 16 -2 14 C-3.15906727 9.75008668 -3.06550078 6.26200312 -2 2 C-1.34 1.34 -0.68 0.68 0 0 Z " fill="#DE2A31" transform="translate(5,0)"/>
<path d="M0 0 C1.10844919 3.32534757 0.84454356 5.62182575 0 9 C0.66 9.33 1.32 9.66 2 10 C1.67 11.65 1.34 13.3 1 15 C0.01 14.67 -0.98 14.34 -2 14 C-2.92533134 9.68178709 -3.07552644 6.30210575 -2 2 C-1.34 1.34 -0.68 0.68 0 0 Z " fill="#D5232E" transform="translate(5,0)"/>
<path d="M0 0 C1.485 0.99 1.485 0.99 3 2 C3.36792655 6.56228926 3.61838609 10.07242087 1 14 C0.34 13.67 -0.32 13.34 -1 13 C-0.67 12.01 -0.34 11.02 0 10 C0.06802967 8.27204648 0.08495645 6.54164635 0.0625 4.8125 C0.05347656 3.91144531 0.04445313 3.01039062 0.03515625 2.08203125 C0.02355469 1.39496094 0.01195312 0.70789062 0 0 Z " fill="#CC1231" transform="translate(11,1)"/>
<path d="M0 0 C1.2065625 0.0309375 1.2065625 0.0309375 2.4375 0.0625 C2.4375 3.0625 2.4375 3.0625 1.4375 5.0625 C0.1175 5.0625 -1.2025 5.0625 -2.5625 5.0625 C-3.125 3.125 -3.125 3.125 -3.5625 1.0625 C-2.5625 0.0625 -2.5625 0.0625 0 0 Z " fill="#F18B47" transform="translate(8.5625,10.9375)"/>
</svg>
